<svg width="20" height="20" viewBox="0 0 20 20" fill="none" xmlns="http://www.w3.org/2000/svg">
<path d="M9.06264 19.2059C4.06984 19.2059 0 15.0806 0 9.99993C0 4.91923 4.06105 0.793945 9.06264 0.793945C11.1371 0.793945 13.1149 1.50828 14.6971 2.80301L14.7147 2.74944C14.952 2.09761 15.5498 1.65115 16.2266 1.59757H16.3585C17.0002 1.59757 17.5891 1.94581 17.8968 2.50835L19.7778 5.92823C20.1119 6.54434 20.0679 7.30332 19.6548 7.85693C19.3296 8.31232 18.8021 8.58019 18.2396 8.58019C18.1605 8.58019 18.0901 8.58019 18.011 8.56234C18.0813 9.02665 18.1165 9.50883 18.1165 9.99101C18.1165 15.0628 14.0555 19.197 9.05387 19.197L9.06264 19.2059Z" fill="#F4F2FF"/>
<path d="M9.06248 17.9469C4.7553 17.9469 1.24805 14.3841 1.24805 10.0088C1.24805 5.63354 4.7553 2.0708 9.06248 2.0708C13.3697 2.0708 16.8769 5.63354 16.8769 10.0088C16.8769 14.3841 13.3697 17.9469 9.06248 17.9469ZM9.06248 3.11552C5.31787 3.11552 2.27648 6.20501 2.27648 10.0088C2.27648 13.8127 5.31787 16.9022 9.06248 16.9022C12.8071 16.9022 15.8485 13.8127 15.8485 10.0088C15.8485 6.20501 12.8071 3.11552 9.06248 3.11552Z" fill="#2E0F06"/>
<path d="M9.06216 15.25C6.21415 15.25 3.90234 12.9016 3.90234 10.0085C3.90234 7.11547 6.21415 4.76709 9.06216 4.76709C11.9102 4.76709 14.222 7.11547 14.222 10.0085C14.222 12.9016 11.9102 15.25 9.06216 15.25ZM9.06216 5.8118C6.78551 5.8118 4.9308 7.69586 4.9308 10.0085C4.9308 12.3212 6.78551 14.2052 9.06216 14.2052C11.3388 14.2052 13.1935 12.3212 13.1935 10.0085C13.1935 7.69586 11.3388 5.8118 9.06216 5.8118Z" fill="#2E0F06"/>
<path d="M9.06182 12.4638C7.72572 12.4638 6.64453 11.3655 6.64453 10.0083C6.64453 8.65102 7.72572 7.55273 9.06182 7.55273C10.3979 7.55273 11.4791 8.65102 11.4791 10.0083C11.4791 11.3655 10.3979 12.4638 9.06182 12.4638ZM9.06182 8.59745C8.29708 8.59745 7.67299 9.23142 7.67299 10.0083C7.67299 10.7851 8.29708 11.4191 9.06182 11.4191C9.82657 11.4191 10.4507 10.7851 10.4507 10.0083C10.4507 9.23142 9.82657 8.59745 9.06182 8.59745Z" fill="#2E0F06"/>
<path d="M9.06255 10.5269C8.88674 10.5269 8.71096 10.4376 8.61427 10.2679C8.47363 10.0179 8.55273 9.69647 8.79885 9.5536L16.7891 4.839C17.0352 4.69613 17.3517 4.77649 17.4923 5.02651C17.6329 5.27653 17.5538 5.59798 17.3077 5.74084L9.31747 10.4555C9.23836 10.5001 9.15045 10.5269 9.06255 10.5269Z" fill="#2E0F06"/>
<path d="M15.3203 6.19585L16.3663 3.39209L18.2474 6.81197L15.3203 6.19585Z" fill="#2E0F06"/>
<path d="M18.2482 7.32941C18.2482 7.32941 18.1779 7.32941 18.1427 7.32048L15.2156 6.70437C15.0661 6.66865 14.9431 6.57936 14.8728 6.44542C14.8025 6.31148 14.7937 6.15076 14.8464 6.00789L15.8836 3.20413C15.954 3.01661 16.1298 2.88268 16.3231 2.86482C16.5165 2.85589 16.7099 2.95411 16.8066 3.13269L18.6877 6.55257C18.7844 6.73115 18.7756 6.95438 18.6525 7.11511C18.5558 7.24905 18.3976 7.32941 18.2394 7.32941H18.2482ZM16.0155 5.81145L17.2549 6.0704L16.4638 4.62387L16.0243 5.81145H16.0155Z" fill="#2E0F06"/>
</svg>
