<svg width="24" height="24" viewBox="0 0 24 24" fill="none" xmlns="http://www.w3.org/2000/svg">
<path d="M10.8752 23.0475C4.88381 23.0475 0 18.0972 0 12.0003C0 5.90346 4.87326 0.953125 10.8752 0.953125C13.3645 0.953125 15.7379 1.81033 17.6366 3.36401L17.6576 3.29971C17.9424 2.51752 18.6597 1.98177 19.4719 1.91748H19.6302C20.4002 1.91748 21.1069 2.33536 21.4761 3.01041L23.7334 7.11426C24.1342 7.8536 24.0815 8.76438 23.5857 9.42871C23.1955 9.97517 22.5626 10.2966 21.8875 10.2966C21.7925 10.2966 21.7081 10.2966 21.6132 10.2752C21.6976 10.8324 21.7398 11.411 21.7398 11.9896C21.7398 18.0757 16.8666 23.0368 10.8646 23.0368L10.8752 23.0475Z" fill="#F0B100"/>
<path d="M10.8754 21.5367C5.70675 21.5367 1.49805 17.2614 1.49805 12.011C1.49805 6.76064 5.70675 2.48535 10.8754 2.48535C16.044 2.48535 20.2527 6.76064 20.2527 12.011C20.2527 17.2614 16.044 21.5367 10.8754 21.5367ZM10.8754 3.73901C6.38184 3.73901 2.73217 7.44641 2.73217 12.011C2.73217 16.5756 6.38184 20.283 10.8754 20.283C15.3689 20.283 19.0186 16.5756 19.0186 12.011C19.0186 7.44641 15.3689 3.73901 10.8754 3.73901Z" fill="#2E0F06"/>
<path d="M10.8744 18.3006C7.45678 18.3006 4.68262 15.4826 4.68262 12.0109C4.68262 8.53924 7.45678 5.72119 10.8744 5.72119C14.292 5.72119 17.0662 8.53924 17.0662 12.0109C17.0662 15.4826 14.292 18.3006 10.8744 18.3006ZM10.8744 6.97485C8.14242 6.97485 5.91677 9.23572 5.91677 12.0109C5.91677 14.7861 8.14242 17.047 10.8744 17.047C13.6064 17.047 15.8321 14.7861 15.8321 12.0109C15.8321 9.23572 13.6064 6.97485 10.8744 6.97485Z" fill="#2E0F06"/>
<path d="M10.8744 14.9572C9.27106 14.9572 7.97363 13.6393 7.97363 12.0106C7.97363 10.3819 9.27106 9.06396 10.8744 9.06396C12.4777 9.06396 13.7751 10.3819 13.7751 12.0106C13.7751 13.6393 12.4777 14.9572 10.8744 14.9572ZM10.8744 10.3176C9.95669 10.3176 9.20778 11.0784 9.20778 12.0106C9.20778 12.9428 9.95669 13.7036 10.8744 13.7036C11.7921 13.7036 12.541 12.9428 12.541 12.0106C12.541 11.0784 11.7921 10.3176 10.8744 10.3176Z" fill="#2E0F06"/>
<path d="M10.8751 12.6327C10.6641 12.6327 10.4532 12.5255 10.3371 12.3219C10.1684 12.0219 10.2633 11.6362 10.5586 11.4647L20.1469 5.80719C20.4423 5.63575 20.822 5.73218 20.9908 6.0322C21.1595 6.33222 21.0646 6.71796 20.7693 6.8894L11.181 12.5469C11.086 12.6005 10.9805 12.6327 10.8751 12.6327Z" fill="#2E0F06"/>
<path d="M18.3848 7.43581L19.64 4.07129L21.8973 8.17514L18.3848 7.43581Z" fill="#2E0F06"/>
<path d="M21.8982 8.79617C21.8982 8.79617 21.8138 8.79617 21.7716 8.78546L18.2591 8.04612C18.0798 8.00326 17.9321 7.89611 17.8477 7.73538C17.7633 7.57466 17.7528 7.38179 17.8161 7.21035L19.0608 3.84583C19.1451 3.62082 19.3561 3.46009 19.5882 3.43866C19.8202 3.42795 20.0523 3.54581 20.1683 3.76011L22.4256 7.86396C22.5417 8.07826 22.5311 8.34614 22.3834 8.53901C22.2674 8.69974 22.0775 8.79617 21.8877 8.79617H21.8982ZM19.219 6.97462L20.7063 7.28535L19.7569 5.54952L19.2295 6.97462H19.219Z" fill="#2E0F06"/>
</svg>
