<svg width="20" height="20" viewBox="0 0 20 20" fill="none" xmlns="http://www.w3.org/2000/svg">
<g clip-path="url(#clip0_13968_14970)">
<path d="M5.44149 4.61392L3.78438 2.95681C3.55552 2.72794 3.1847 2.72794 2.95583 2.95681C2.72696 3.18567 2.72696 3.55649 2.95583 3.78536L4.61294 5.44247C4.84181 5.67134 5.21263 5.67134 5.44149 5.44247C5.67036 5.2136 5.67036 4.84278 5.44149 4.61392Z" fill="#F5B53D"/>
<path d="M2.96875 9.41406H0.585938C0.26207 9.41406 0 9.67613 0 10C0 10.3239 0.26207 10.5859 0.585938 10.5859H2.96875C3.29262 10.5859 3.55469 10.3239 3.55469 10C3.55469 9.67613 3.29262 9.41406 2.96875 9.41406Z" fill="#F5B53D"/>
<path d="M19.4141 9.41406H17.0312C16.7074 9.41406 16.4453 9.67613 16.4453 10C16.4453 10.3239 16.7074 10.5859 17.0312 10.5859H19.4141C19.7379 10.5859 20 10.3239 20 10C20 9.67613 19.7379 9.41406 19.4141 9.41406Z" fill="#F5B53D"/>
<path d="M17.0431 2.95681C16.8142 2.72794 16.4434 2.72794 16.2145 2.95681L14.5574 4.61392C14.3285 4.84278 14.3285 5.2136 14.5574 5.44247C14.7863 5.67134 15.1571 5.67134 15.3859 5.44247L17.0431 3.78536C17.2719 3.55649 17.2719 3.18571 17.0431 2.95681Z" fill="#F5B53D"/>
<path d="M10 0C9.67613 0 9.41406 0.26207 9.41406 0.585938V2.96875C9.41406 3.29262 9.67613 3.55469 10 3.55469C10.3239 3.55469 10.5859 3.29262 10.5859 2.96875V0.585938C10.5859 0.26207 10.3239 0 10 0Z" fill="#F5B53D"/>
<path d="M13.2814 5.86476C12.0041 4.85694 10.3517 4.4937 8.7345 4.88042C6.8595 5.31401 5.34782 6.80226 4.89075 8.66558C4.43372 10.5405 4.96106 12.439 6.30868 13.7632C6.78919 14.2437 7.07044 14.9976 7.07044 15.771V15.9C7.07044 16.228 7.32821 16.4859 7.65638 16.4859H12.3439C12.672 16.4859 12.9298 16.228 12.9298 15.9V15.771C12.9298 15.0093 13.2228 14.2319 13.7384 13.728C14.7228 12.7319 15.2736 11.4078 15.2736 10.0015C15.2736 8.38433 14.547 6.87257 13.2814 5.86476ZM10.0001 8.2437C9.11614 8.2437 8.47263 8.83007 8.30411 9.50886C8.22743 9.81757 7.91681 10.0146 7.59399 9.93687C7.28044 9.85905 7.08872 9.54089 7.16657 9.22733C7.45688 8.05546 8.55759 7.07183 10.0001 7.07183C10.324 7.07183 10.5861 7.3339 10.5861 7.65776C10.5861 7.98163 10.324 8.2437 10.0001 8.2437Z" fill="#F5B53D"/>
<path d="M7.65625 17.6562V18.2422C7.65625 19.2115 8.44477 20 9.41406 20H10.5859C11.5552 20 12.3438 19.2115 12.3438 18.2422V17.6562H7.65625Z" fill="#F5B53D"/>
</g>
<defs>
<clipPath id="clip0_13968_14970">
<rect width="20" height="20" fill="white"/>
</clipPath>
</defs>
</svg>
