<svg width="56" height="56" viewBox="0 0 56 56" fill="none" xmlns="http://www.w3.org/2000/svg">
<path d="M39.105 44C39.105 44.7987 38.605 45 38.105 45C37.605 45 37.105 44.5 37.105 44C37.105 43.5 37.605 43 38.105 43C38.605 43 39.105 43.2013 39.105 44Z" fill="#FB7E5B"/>
<path d="M28.605 43V48M13.105 30.5C13.4176 34 19.105 43 28.105 43C29.605 43 30.105 43 32.605 42.5M33.105 32.4906C34.105 29 39.605 27.0002 42.105 30.5006C44.4014 33.7159 41.2716 36.6665 38.105 37.9998M37.605 23.4998C37.605 16.6998 36.605 13.6665 36.105 12.9998C35.105 11.2797 33.605 8.00043 28.105 8C24.0375 7.99968 21.6772 10.3192 20.605 12.9998C19.605 15.5 19.4572 24.1667 19.605 28.5C19.7074 31.5 22.105 34.7058 24.605 36C26.8115 37.1423 28.7717 37.0327 29.605 37M39.105 44C39.105 44.7987 38.605 45 38.105 45C37.605 45 37.105 44.5 37.105 44C37.105 43.5 37.605 43 38.105 43C38.605 43 39.105 43.2013 39.105 44Z" stroke="#FB7E5B" stroke-width="4" stroke-linecap="round"/>
</svg>
