<svg width="56" height="56" viewBox="0 0 56 56" fill="none" xmlns="http://www.w3.org/2000/svg">
<path d="M24.8022 43V48M9.30225 30.5C9.61485 34 15.3022 43 24.3022 43C25.8022 43 26.3022 43 28.8022 42.5M33.6973 27.8848C33.6973 21.0848 32.8023 13.6665 32.3023 12.9998C31.3023 11.2797 29.8023 8.00043 24.3023 8C20.2348 7.99968 17.8744 10.3192 16.8023 12.9998C15.8023 15.5 15.6544 24.1667 15.8023 28.5C15.9046 31.5 18.3023 34.7058 20.8023 36C23.0088 37.1423 24.9689 37.0327 25.8023 37M46.6975 28.3848L35.6975 39.3848L30.6975 34.3848" stroke="white" stroke-width="4" stroke-linecap="round" stroke-linejoin="round"/>
</svg>
