<svg width="24" height="24" viewBox="0 0 24 24" fill="none" xmlns="http://www.w3.org/2000/svg">
<path fill-rule="evenodd" clip-rule="evenodd" d="M7.67827 4.01019e-07H16.3217C17.3951 -1.29323e-05 18.2808 -2.63403e-05 19.0024 0.0589337C19.7519 0.12016 20.4408 0.251574 21.088 0.581307C22.0915 1.09263 22.9073 1.90852 23.4187 2.91205C23.7484 3.55917 23.8799 4.24811 23.9411 4.99757C24 5.71916 24 6.60496 24 7.67824V16.3217C24 17.3951 24 18.2808 23.9411 19.0024C23.8799 19.7519 23.7484 20.4408 23.4187 21.088C22.9073 22.0915 22.0915 22.9073 21.088 23.4187C20.4408 23.7484 19.7519 23.8799 19.0024 23.9411C18.2808 24 17.3951 24 16.3217 24H7.67824C6.60496 24 5.71916 24 4.99757 23.9411C4.24811 23.8799 3.55917 23.7484 2.91205 23.4187C1.90852 22.9073 1.09263 22.0915 0.581307 21.088C0.251574 20.4408 0.12016 19.7519 0.0589337 19.0024C-2.63403e-05 18.2808 -1.29323e-05 17.3951 4.01019e-07 16.3217V7.67825C-1.29323e-05 6.60497 -2.63403e-05 5.71915 0.0589337 4.99757C0.12016 4.24811 0.251574 3.55917 0.581307 2.91205C1.09263 1.90852 1.90852 1.09263 2.91205 0.581307C3.55917 0.251574 4.24811 0.12016 4.99757 0.0589337C5.71915 -2.63403e-05 6.605 -1.29323e-05 7.67827 4.01019e-07ZM17.6052 9.9428C18.1259 9.42213 18.1259 8.57791 17.6052 8.0572C17.0844 7.53651 16.2403 7.53651 15.7196 8.0572L10.6624 13.1144L8.93849 11.3905C8.41779 10.8699 7.57358 10.8699 7.05288 11.3905C6.53217 11.9112 6.53217 12.7555 7.05288 13.2761L9.7196 15.9428C10.2403 16.4635 11.0844 16.4635 11.6052 15.9428L17.6052 9.9428Z" fill="#00C386"/>
</svg>
